Patient4_TMGait_0pt3_01_left_02_GRF.mot
version=1
nRows=45
nColumns=19
inDegrees=no
endheader
time	F1x	F1y	F1z	M1x	M1y	M1z	F2x	F2y	F2z	M2x	M2y	M2z	EC1x	EC1y	EC1z	EC2x	EC2y	EC2z
2.97	4.6403	-6.1263	-1.6353	2.0873	1.7757	-5.7188	-12.3604	769.8972	-45.6576	277.5457	55.33	824.5754	-0.0592	0.0182	-0.0073	-0.0462	0.0165	0.9585
2.9891	3.1145	-3.8933	-1.0706	1.3026	1.1258	-3.5566	-13.8453	773.3451	-44.7374	279.0834	54.6367	825.0715	-0.0592	0.0182	-0.0073	-0.0462	0.0165	0.9585
3.0083	1.8118	-1.9756	-0.57903	0.62797	0.56606	-1.6868	-15.0613	778.6074	-43.9458	281.2568	53.9424	827.153	-0.0592	0.0182	-0.0073	-0.0462	0.0165	0.9585
3.0274	0.81293	-0.4868	-0.19322	0.10314	0.13229	-0.23137	-15.9132	785.601	-43.3771	284.0043	53.3157	830.8737	-0.0592	0.0182	-0.0073	-0.0462	0.0165	0.9585
3.0466	0.11969	0.57357	0.08407	-0.27152	-0.1753	0.80762	-16.3664	793.8927	-43.0834	287.1427	52.7998	835.8784	-0.0592	0.0182	-0.0073	-0.0462	0.0165	0.9585
3.0657	-0.31268	1.2642	0.26741	-0.5157	-0.37698	1.4821	-16.4227	802.6961	-43.0807	290.3667	52.4156	841.411	-0.0592	0.0182	-0.0073	-0.0462	0.0165	0.9585
3.0849	-0.54795	1.6617	0.37766	-0.65625	-0.49964	1.8605	-16.1037	810.923	-43.3551	293.2697	52.1603	846.3812	-0.0592	0.0182	-0.0073	-0.0462	0.0165	0.9585
3.104	-0.65303	1.8385	0.43551	-0.7183	-0.56813	2.014	-15.4445	817.3567	-43.8513	295.4131	51.9921	849.5559	-0.0592	0.0182	-0.0073	-0.0462	0.0165	0.9585
3.1231	-0.68651	1.8459	0.45805	-0.71843	-0.60405	1.9934	-14.4852	820.9082	-44.4644	296.4199	51.8206	849.8231	-0.0592	0.0182	-0.0073	-0.0462	0.0165	0.9585
3.1423	-0.69409	1.7091	0.45926	-0.66351	-0.62621	1.8197	-13.2523	820.8776	-45.0609	296.0668	51.5244	846.4522	-0.0592	0.0182	-0.0073	-0.0462	0.0165	0.9585
3.1614	-0.7071	1.4244	0.44898	-0.55134	-0.64705	1.4893	-11.7518	817.1233	-45.5113	294.3392	50.9834	839.2663	-0.0592	0.0182	-0.0073	-0.0462	0.0165	0.9585
3.1806	-0.74234	0.96635	0.43417	-0.37276	-0.67307	0.97653	-9.9674	810.0801	-45.7164	291.43	50.1049	828.6551	-0.0592	0.0182	-0.0073	-0.0462	0.0165	0.9585
3.1997	-0.80203	0.29831	0.41655	-0.11344	-0.70142	0.23826	-7.8622	800.6302	-45.6222	287.6901	48.8319	815.4427	-0.0592	0.0182	-0.0073	-0.0462	0.0165	0.9585
3.2189	-0.86904	-0.61273	0.3931	0.23951	-0.72073	-0.76292	-5.3885	789.875	-45.2191	283.5461	47.1421	800.6756	-0.0592	0.0182	-0.0073	-0.0462	0.0165	0.9585
3.238	-0.90281	-1.7664	0.35658	0.68558	-0.7085	-2.0293	-2.5041	778.8937	-44.5394	279.4081	45.0554	785.3901	-0.0592	0.0182	-0.0073	-0.0462	0.0165	0.9585
3.2571	-0.83656	-3.0952	0.29382	1.1982	-0.62699	-3.492	0.81822	768.5631	-43.6628	275.6036	42.6407	770.4298	-0.0592	0.0182	-0.0073	-0.0462	0.0165	0.9585
3.2763	-0.58055	-4.4254	0.18847	1.7084	-0.42323	-4.9616	4.58	759.495	-42.6936	272.3554	40.0027	756.3884	-0.0592	0.0182	-0.0073	-0.0462	0.0165	0.9585
3.2954	-0.023891	-5.4297	0.020207	2.0877	-0.029954	-6.0767	8.7344	752.0302	-41.736	269.7815	37.2587	743.6187	-0.0592	0.0182	-0.0073	-0.0462	0.0165	0.9585
3.3146	0.95554	-5.5812	-0.23063	2.1302	0.62313	-6.2532	13.1936	746.2447	-40.8791	267.8975	34.5196	732.2409	-0.0592	0.0182	-0.0073	-0.0462	0.0165	0.9585
3.3337	2.4697	-4.1213	-0.57531	1.5383	1.5929	-4.6479	17.8281	741.9122	-40.1933	266.6044	31.8907	722.1113	-0.0592	0.0182	-0.0073	-0.0462	0.0165	0.9585
3.3529	4.584	-0.055263	-1.0107	-0.076141	2.9006	-0.15332	22.4423	738.3943	-39.7292	265.6495	29.4777	712.733	-0.0592	0.0182	-0.0073	-0.0462	0.0165	0.9585
3.372	7.2582	7.7879	-1.511	-3.165	4.5002	8.5358	26.7911	734.6114	-39.5047	264.6181	27.3703	703.2248	-0.0592	0.0182	-0.0073	-0.0462	0.0165	0.9585
3.3911	10.2532	20.6146	-2.0046	-8.1867	6.2207	22.7642	30.6135	729.1064	-39.4896	262.9604	25.6222	692.3743	-0.0592	0.0182	-0.0073	-0.0462	0.0165	0.9585
3.4103	12.973	39.4289	-2.3454	-15.5156	7.6744	43.6576	33.6569	720.1733	-39.5877	260.042	24.2344	678.7509	-0.0592	0.0182	-0.0073	-0.0462	0.0165	0.9585
3.4294	14.4418	64.7513	-2.3023	-25.3361	8.2396	71.8232	35.6967	706.1126	-39.644	255.2333	23.1556	660.9321	-0.0592	0.0182	-0.0073	-0.0462	0.0165	0.9585
3.4486	13.9635	96.7981	-1.5858	-37.7016	7.3394	107.5404	36.5462	685.5709	-39.4806	248.0301	22.3138	637.8208	-0.0592	0.0182	-0.0073	-0.0462	0.0165	0.9585
3.4677	11.5057	135.5494	0.12603	-52.5591	4.6088	150.7881	36.0742	657.7646	-38.932	238.1359	21.6364	608.8347	-0.0592	0.0182	-0.0073	-0.0462	0.0165	0.9585
3.4869	7.3595	180.1913	3.1693	-69.5512	-0.20859	200.5958	34.2503	622.5531	-37.8513	225.4967	21.0351	573.9441	-0.0592	0.0182	-0.0073	-0.0462	0.0165	0.9585
3.506	2.0868	229.1043	7.6349	-88.0422	-6.9937	255.0534	31.2082	580.5893	-36.1444	210.3575	20.4065	533.7724	-0.0592	0.0182	-0.0073	-0.0462	0.0165	0.9585
3.5251	-3.6383	280.3533	13.1602	-107.3179	-15.0674	311.8517	27.2786	533.4122	-33.8341	193.2923	19.6708	489.6585	-0.0592	0.0182	-0.0073	-0.0462	0.0165	0.9585
3.5443	-9.1509	332.3005	19.0975	-126.8043	-23.4529	369.0036	22.9645	483.2921	-31.071	175.1437	18.7864	443.5152	-0.0592	0.0182	-0.0073	-0.0462	0.0165	0.9585
3.5634	-13.8768	383.5146	24.8633	-146.0063	-31.3052	424.7999	18.8226	432.7824	-28.0719	156.8589	17.738	397.4549	-0.0592	0.0182	-0.0073	-0.0462	0.0165	0.9585
3.5826	-17.3517	432.2981	30.0132	-164.3181	-37.984	477.2916	15.2851	384.1775	-25.065	139.289	16.5528	353.3514	-0.0592	0.0182	-0.0073	-0.0462	0.0165	0.9585
3.6017	-19.2573	476.6343	34.3097	-180.9943	-43.1317	524.2238	12.5416	339.1075	-22.2768	123.0339	15.3337	312.521	-0.0592	0.0182	-0.0073	-0.0462	0.0165	0.9585
3.6209	-19.5188	514.7938	37.6921	-195.379	-46.6684	563.7121	10.5458	298.366	-19.9298	108.3744	14.2571	275.5791	-0.0592	0.0182	-0.0073	-0.0462	0.0165	0.9585
3.64	-18.3457	546.0664	40.2053	-207.1924	-48.7326	595.0562	9.0683	261.8945	-18.1596	95.2695	13.4892	242.4267	-0.0592	0.0182	-0.0073	-0.0462	0.0165	0.9585
3.6591	-16.1731	571.0635	41.9727	-216.6516	-49.6325	619.0453	7.8185	229.0049	-16.9398	83.4475	13.0863	212.4294	-0.0592	0.0182	-0.0073	-0.0462	0.0165	0.9585
3.6783	-13.5351	591.5102	43.1886	-224.3948	-49.7934	637.7008	6.5454	198.735	-16.1147	72.5395	12.9859	184.7235	-0.0592	0.0182	-0.0073	-0.0462	0.0165	0.9585
3.6974	-10.9321	609.6822	44.1077	-231.2725	-49.6914	653.632	5.0817	170.1941	-15.4807	62.2096	13.0572	158.519	-0.0592	0.0182	-0.0073	-0.0462	0.0165	0.9585
3.7166	-8.7192	627.7429	44.9931	-238.1028	-49.7512	669.2893	3.3728	142.9574	-14.8608	52.2982	13.1604	133.4478	-0.0592	0.0182	-0.0073	-0.0462	0.0165	0.9585
3.7357	-7.0674	647.1679	46.0276	-245.4598	-50.2353	686.3408	1.4869	117.3096	-14.1452	42.9115	13.182	109.7857	-0.0592	0.0182	-0.0073	-0.0462	0.0165	0.9585
3.7549	-5.9734	668.3522	47.237	-253.5251	-51.1681	705.2584	-0.41081	94.0447	-13.2909	34.3486	13.0346	88.2724	-0.0592	0.0182	-0.0073	-0.0462	0.0165	0.9585
3.774	-5.2978	690.563	48.4707	-262.0612	-52.334	725.2766	-2.1331	73.967	-12.2867	26.9203	12.6524	69.6535	-0.0592	0.0182	-0.0073	-0.0462	0.0165	0.9585
3.7931	-4.834	712.2992	49.4632	-270.5308	-53.3631	744.7965	-3.5378	57.5262	-11.1263	20.8122	11.9932	54.3523	-0.0592	0.0182	-0.0073	-0.0462	0.0165	0.9585
3.8123	-4.3621	731.7931	49.9561	-278.2749	-53.8759	761.9548	-4.5697	44.703	-9.8207	16.0357	11.0589	42.364	-0.0592	0.0182	-0.0073	-0.0462	0.0165	0.9585
